<svg width="37" height="37" viewBox="0 0 37 37" fill="none" xmlns="http://www.w3.org/2000/svg">
<rect x="0.212646" y="0.948608" width="35.7946" height="35.7946" rx="17.8973" fill="#09B451"/>
<path d="M25.4927 13.7004H10.7274C10.2332 13.7004 9.83252 14.1011 9.83252 14.5953V23.0965C9.83252 23.5907 10.2332 23.9914 10.7274 23.9914H25.4927C25.9869 23.9914 26.3875 23.5907 26.3875 23.0965V14.5953C26.3875 14.1011 25.9869 13.7004 25.4927 13.7004Z" stroke="white" stroke-width="0.894866" stroke-linecap="round" stroke-linejoin="round"/>
<path d="M23.2554 26.2286V11.4633C23.2554 10.9691 22.8547 10.5685 22.3605 10.5685H13.8593C13.3651 10.5685 12.9644 10.9691 12.9644 11.4633L12.9644 26.2286C12.9644 26.7228 13.3651 27.1235 13.8593 27.1235H22.3605C22.8547 27.1235 23.2554 26.7228 23.2554 26.2286Z" stroke="white" stroke-width="0.894866" stroke-linecap="round" stroke-linejoin="round"/>
<path d="M20.8527 17.9376L18.6424 20.8683M20.8527 20.8683L18.6424 17.9376M21.4434 16.6088H17.8147L16.0786 21.0831L14.7766 17.9376" stroke="white" stroke-width="0.894866" stroke-linecap="round" stroke-linejoin="round"/>
</svg>
