<svg width="36" height="37" viewBox="0 0 36 37" fill="none" xmlns="http://www.w3.org/2000/svg">
<rect x="0.0830078" y="0.948608" width="35.7946" height="35.7946" rx="17.8973" fill="#09B451"/>
<path d="M19.7701 25.11C23.1447 25.11 24.8324 25.11 25.8803 24.0612C26.929 23.0133 26.929 21.3256 26.929 17.951C26.929 14.5765 26.929 12.8888 25.8803 11.8409C24.8324 10.7921 23.1447 10.7921 19.7701 10.7921H16.1907C12.8161 10.7921 11.1284 10.7921 10.0805 11.8409C9.03174 12.8888 9.03174 14.5765 9.03174 17.951C9.03174 21.3256 9.03174 23.0133 10.0805 24.0612C10.6649 24.6464 11.4479 24.905 12.6112 25.0187" stroke="#F5F5F5" stroke-width="1.78973" stroke-linecap="round" stroke-linejoin="round"/>
<path d="M17.9804 17.951V17.96M14.4009 17.951V17.96M21.5598 17.951V17.96M19.7701 25.11C18.664 25.11 17.4452 25.5574 16.3329 26.1346C14.545 27.0626 13.651 27.527 13.2107 27.2308C12.7705 26.9355 12.8537 26.0183 13.021 24.1847L13.0586 23.7677" stroke="#F5F5F5" stroke-width="1.78973" stroke-linecap="round"/>
</svg>
