<svg width="37" height="37" viewBox="0 0 37 37" fill="none" xmlns="http://www.w3.org/2000/svg">
<rect x="0.212646" y="0.948608" width="35.7946" height="35.7946" rx="17.8973" fill="#09B451"/>
<path d="M15.4254 10.7921C14.2388 10.7921 13.1007 11.2635 12.2616 12.1026C11.4225 12.9417 10.9511 14.0798 10.9511 15.2664C10.9511 16.4531 11.4225 17.5912 12.2616 18.4303C13.1007 19.2694 14.2388 19.7408 15.4254 19.7408C16.6121 19.7408 17.7502 19.2694 18.5893 18.4303C19.4284 17.5912 19.8998 16.4531 19.8998 15.2664C19.8998 14.0798 19.4284 12.9417 18.5893 12.1026C17.7502 11.2635 16.6121 10.7921 15.4254 10.7921ZM12.7408 15.2664C12.7408 14.5544 13.0237 13.8716 13.5271 13.3681C14.0306 12.8647 14.7134 12.5818 15.4254 12.5818C16.1374 12.5818 16.8203 12.8647 17.3237 13.3681C17.8272 13.8716 18.11 14.5544 18.11 15.2664C18.11 15.9784 17.8272 16.6613 17.3237 17.1647C16.8203 17.6682 16.1374 17.951 15.4254 17.951C14.7134 17.951 14.0306 17.6682 13.5271 17.1647C13.0237 16.6613 12.7408 15.9784 12.7408 15.2664ZM22.502 15.4615C22.2504 15.3333 21.9719 15.2664 21.6895 15.2664V13.4767C22.2546 13.4767 22.8117 13.6106 23.3152 13.8673C23.8186 14.124 24.2542 14.4963 24.5861 14.9536C24.9181 15.411 25.137 15.9404 25.225 16.4987C25.3131 17.0569 25.2676 17.628 25.0925 18.1653C24.9174 18.7027 24.6176 19.1909 24.2175 19.59C23.8175 19.9892 23.3286 20.288 22.7909 20.4619C22.2532 20.6358 21.682 20.68 21.1239 20.5907C20.5659 20.5015 20.0369 20.2813 19.5803 19.9484L20.6344 18.5023C20.834 18.6475 21.0615 18.7499 21.3025 18.803C21.5436 18.8561 21.793 18.8588 22.0352 18.8109C22.2773 18.7629 22.5069 18.6654 22.7095 18.5245C22.9122 18.3836 23.0835 18.2022 23.2127 17.9919C23.3418 17.7815 23.4261 17.5468 23.4602 17.3023C23.4943 17.0578 23.4774 16.8089 23.4107 16.5713C23.3439 16.3337 23.2288 16.1124 23.0724 15.9214C22.916 15.7304 22.7218 15.5738 22.502 15.4615ZM25.2672 26.8997C25.2669 25.9509 24.8899 25.0411 24.219 24.3702C23.5481 23.6993 22.6383 23.3223 21.6895 23.322V21.5305C23.1134 21.5307 24.479 22.0965 25.4858 23.1034C26.4927 24.1102 27.0585 25.4758 27.0587 26.8997H25.2672ZM21.6895 26.8997H19.8998C19.8998 25.713 19.4284 24.575 18.5893 23.7359C17.7502 22.8968 16.6121 22.4254 15.4254 22.4254C14.2388 22.4254 13.1007 22.8968 12.2616 23.7359C11.4225 24.575 10.9511 25.713 10.9511 26.8997H9.16138C9.16138 25.2384 9.82134 23.6451 10.9961 22.4703C12.1708 21.2956 13.7641 20.6356 15.4254 20.6356C17.0868 20.6356 18.6801 21.2956 19.8548 22.4703C21.0295 23.6451 21.6895 25.2384 21.6895 26.8997Z" fill="white"/>
</svg>
