<svg width="37" height="37" viewBox="0 0 37 37" fill="none" xmlns="http://www.w3.org/2000/svg">
<rect x="0.554932" y="0.948608" width="35.7946" height="35.7946" rx="17.8973" fill="#09B451"/>
<g clip-path="url(#clip0_1_1896)">
<path d="M9.05617 11.9036C10.2441 11.4069 11.9475 10.8713 13.6039 10.7049C15.3891 10.525 16.9032 10.7894 17.7811 11.7143V24.7963C16.5261 24.0849 14.9354 23.9869 13.4683 24.1346C11.8844 24.2956 10.2871 24.7534 9.05617 25.2232V11.9036ZM19.1234 11.7143C20.0013 10.7894 21.5154 10.525 23.3006 10.7049C24.957 10.8713 26.6604 11.4069 27.8483 11.9036V25.2232C26.6161 24.7534 25.0201 24.2943 23.4362 24.1359C21.9677 23.9869 20.3785 24.0836 19.1234 24.7963V11.7143ZM18.4523 10.5009C17.1301 9.36392 15.2133 9.19479 13.4683 9.36929C11.4361 9.57466 9.38503 10.2713 8.10716 10.8525C7.98991 10.9059 7.89048 10.9918 7.82074 11.1001C7.751 11.2084 7.7139 11.3345 7.71387 11.4633V26.2286C7.7139 26.3409 7.74211 26.4513 7.7959 26.5499C7.8497 26.6485 7.92738 26.732 8.0218 26.7927C8.11623 26.8535 8.2244 26.8896 8.3364 26.8978C8.4484 26.9059 8.56065 26.8858 8.66287 26.8393C9.84678 26.3024 11.7542 25.6567 13.6025 25.4702C15.4938 25.2796 17.0791 25.5869 17.9288 26.6474C17.9916 26.7257 18.0713 26.789 18.1619 26.8325C18.2525 26.8759 18.3518 26.8985 18.4523 26.8985C18.5527 26.8985 18.652 26.8759 18.7426 26.8325C18.8332 26.789 18.9129 26.7257 18.9757 26.6474C19.8254 25.5869 21.4107 25.2796 23.3006 25.4702C25.1503 25.6567 27.0591 26.3024 28.2416 26.8393C28.3439 26.8858 28.4561 26.9059 28.5681 26.8978C28.6801 26.8896 28.7883 26.8535 28.8827 26.7927C28.9771 26.732 29.0548 26.6485 29.1086 26.5499C29.1624 26.4513 29.1906 26.3409 29.1906 26.2286V11.4633C29.1906 11.3345 29.1535 11.2084 29.0838 11.1001C29.014 10.9918 28.9146 10.9059 28.7973 10.8525C27.5195 10.2713 25.4684 9.57466 23.4362 9.36929C21.6912 9.19345 19.7744 9.36392 18.4523 10.5009Z" fill="white"/>
</g>
<defs>
<clipPath id="clip0_1_1896">
<rect width="21.4768" height="21.4768" fill="white" transform="translate(7.71387 8.10754)"/>
</clipPath>
</defs>
</svg>
