<svg width="36" height="37" viewBox="0 0 36 37" fill="none" xmlns="http://www.w3.org/2000/svg">
<rect x="0.0134277" y="0.948608" width="35.7946" height="35.7946" rx="17.8973" fill="#09B451"/>
<g clip-path="url(#clip0_1_1919)">
<path d="M16.6067 29.5037C14.6912 29.2554 12.7194 28.4339 11.2831 27.2842C8.04954 24.7043 6.58174 20.6284 7.42067 16.5807C7.78041 14.8331 8.71733 12.9941 9.91668 11.6693C10.8002 10.675 11.8656 9.85874 13.0556 9.26454C14.6355 8.46386 16.1456 8.10413 17.9282 8.10413C19.2074 8.10413 20.2356 8.27191 21.4135 8.67393C22.9609 9.20471 24.3667 10.0817 25.5237 11.2382C26.6807 12.3947 27.5585 13.8 28.0901 15.3472C28.7196 17.1928 28.8344 19.1573 28.4323 21.1043C28.1109 22.6426 27.282 24.3728 26.2618 25.6238C25.8424 26.1413 24.8773 27.0641 24.3705 27.4379C22.8546 28.5638 21.0718 29.2757 19.1973 29.5037C18.645 29.5735 17.1416 29.5702 16.6074 29.5037H16.6067ZM19.5329 28.6057C22.1492 28.1672 24.4842 26.7074 26.0243 24.5473C27.8384 21.9989 28.3243 18.5801 27.3001 15.5988C27.0592 14.8995 26.4612 13.7324 26.0243 13.1169C25.5383 12.4283 24.3356 11.2223 23.6437 10.7364C22.9725 10.2612 21.8296 9.68401 21.0497 9.42897C19.642 8.96128 18.1471 8.81586 16.6756 9.00347C15.2041 9.19108 13.7936 9.70692 12.5483 10.5129C11.3765 11.2826 10.375 12.2842 9.60526 13.4559C8.79951 14.7006 8.28377 16.1104 8.09616 17.5812C7.90855 19.052 8.05386 20.5462 8.52136 21.9533C8.77975 22.7325 9.35694 23.8795 9.82876 24.5506C10.318 25.2392 11.5207 26.4453 12.2093 26.9312C12.8281 27.3648 13.9919 27.9621 14.6912 28.2071C16.2478 28.7359 17.9108 28.8728 19.5329 28.6057ZM15.8134 25.005C15.3116 24.9293 14.8302 24.7534 14.3979 24.4875C14.01 24.2392 11.0804 21.3694 10.9375 21.1003C10.7731 20.7929 11.0596 20.2331 11.469 20.062L11.661 19.9815L11.0704 19.3801C10.7455 19.0479 10.4375 18.6949 10.3885 18.5969C10.2731 18.3734 10.2697 17.8942 10.3778 17.6808C10.4234 17.5935 10.5314 17.4606 10.6153 17.3868C10.759 17.268 10.7724 17.2257 10.759 16.925C10.7415 16.6593 10.7657 16.5546 10.8811 16.3552C11.0489 16.0687 11.3952 15.876 11.7341 15.8727C11.9227 15.8727 11.9717 15.8485 12.0523 15.7082C12.2623 15.3411 12.863 15.2082 13.3214 15.4324L13.5697 15.5512L13.6919 15.4324C13.8597 15.2787 14.1953 15.1425 14.4154 15.1425C14.8557 15.1425 15.4778 15.6492 15.4778 16.0056C15.4778 16.4317 15.0899 16.5056 14.7053 16.1525C14.4503 15.915 14.3208 15.8901 14.2161 16.0579C14.1637 16.1385 14.2892 16.2888 15.0409 17.0472C15.7926 17.8022 15.9288 17.9633 15.9288 18.1063C15.9229 18.2158 15.8762 18.3192 15.798 18.3962C15.7198 18.4732 15.6157 18.5182 15.506 18.5224C15.3698 18.5224 15.1463 18.3264 14.1147 17.2989C13.0624 16.2499 12.8704 16.0821 12.7865 16.1351C12.559 16.2787 12.6362 16.3834 13.8664 17.617C14.5342 18.2881 15.0832 18.8821 15.0832 18.9385C15.0832 19.0539 14.9785 19.2673 14.8912 19.3231C14.8197 19.3545 14.7418 19.369 14.6637 19.3653C14.5201 19.3687 14.3 19.1694 13.1295 18.0022C11.955 16.8344 11.7449 16.6458 11.661 16.6982C11.4301 16.8452 11.5073 16.9465 12.8462 18.2922C13.5771 19.0231 14.1885 19.6767 14.206 19.7465C14.2442 19.8727 14.1604 20.0929 14.0489 20.1694C13.975 20.2008 13.895 20.2153 13.8147 20.2117C13.6711 20.2117 13.4899 20.0546 12.5214 19.0861C11.5878 18.1526 11.3711 17.9606 11.2523 17.9714C10.9167 18.0096 11.0355 18.16 12.7691 19.8976C14.2724 21.4043 14.4644 21.6177 14.4644 21.7748C14.4659 21.8324 14.4529 21.8895 14.4267 21.9409C14.4004 21.9923 14.3617 22.0362 14.314 22.0687C14.0449 22.2822 13.9402 22.2332 13.2617 21.5761C12.9154 21.2439 12.559 20.9224 12.4644 20.8627C12.2932 20.758 11.8597 20.7123 11.7791 20.7962C11.7509 20.8204 12.3905 21.4956 13.1986 22.2956C14.5442 23.6271 14.6979 23.764 15.0932 23.9526C15.4574 24.134 15.8585 24.2289 16.2653 24.2301C16.6721 24.2313 17.0737 24.1386 17.4389 23.9594C18.5678 23.4211 19.194 22.1137 18.8859 20.9284C18.7322 20.3378 18.5396 20.0546 17.7638 19.2539C16.8691 18.3378 16.6624 18.0861 16.4423 17.6459C16.1973 17.1532 16.0926 16.674 16.0926 16.076C16.0926 15.429 16.159 15.1358 16.4456 14.5311C16.7181 13.9545 17.2879 13.3498 17.851 13.0384C18.9557 12.423 20.4101 12.4753 21.4651 13.1646C21.6752 13.3008 22.4336 14.0143 23.3772 14.9613C24.7793 16.3666 24.9397 16.5485 24.9397 16.7089C24.9397 17.0901 24.6283 17.513 24.2826 17.6002C24.1531 17.6351 24.1779 17.67 24.7652 18.268C25.1075 18.6143 25.4256 18.9882 25.4746 19.1036C25.639 19.4989 25.5652 19.8828 25.2645 20.1976C25.1108 20.3586 25.09 20.4143 25.086 20.7358C25.0826 21.019 25.0511 21.1378 24.939 21.2989C24.8505 21.43 24.7319 21.538 24.5933 21.614C24.4546 21.69 24.2998 21.7317 24.1417 21.7358C23.9249 21.7358 23.8833 21.7566 23.7746 21.9211C23.5296 22.2989 22.8933 22.4311 22.4813 22.1868L22.2752 22.0647L22.1282 22.2083C21.8034 22.5197 21.2786 22.5613 20.8806 22.3063C20.5591 22.1036 20.3215 21.8204 20.3215 21.6419C20.3215 21.4848 20.549 21.2258 20.6886 21.2258C20.8215 21.2258 21 21.3305 21.2027 21.5197C21.4054 21.7117 21.5806 21.7117 21.6081 21.5164C21.6222 21.4117 21.4544 21.2123 20.7759 20.5305C20.0624 19.8103 19.9262 19.6459 19.9262 19.5063C19.9246 19.4283 19.939 19.3509 19.9685 19.2788C20.0457 19.1633 20.2624 19.0828 20.3947 19.1177C20.4645 19.1351 21.0551 19.6808 21.7021 20.3271C22.3524 20.9774 22.9222 21.5083 22.9746 21.5083C23.1182 21.5083 23.2121 21.3647 23.1457 21.2425C23.1142 21.1868 22.5652 20.6237 21.9289 19.9875C20.9329 18.9949 20.7718 18.8096 20.7718 18.6626C20.7686 18.5835 20.783 18.5046 20.8141 18.4318C20.8739 18.3445 21.0833 18.2398 21.202 18.2398C21.2544 18.2398 21.9115 18.8512 22.6631 19.5996C24.0403 20.9701 24.1417 21.0466 24.2853 20.8197C24.3377 20.7358 24.1491 20.5224 22.9813 19.3512C21.7752 18.1418 21.6148 17.96 21.6148 17.8029C21.6148 17.6948 21.6638 17.5828 21.741 17.513C21.996 17.272 22.0732 17.321 23.3142 18.5546C24.4887 19.7257 24.5934 19.8023 24.737 19.5788C24.7893 19.4949 24.5518 19.2365 23.094 17.7747C21.5068 16.1807 21.392 16.0512 21.392 15.866C21.392 15.5861 21.5531 15.4532 21.8638 15.4747C21.9195 15.478 22.2551 15.7613 22.6014 16.1002C22.9511 16.4391 23.3282 16.7573 23.4403 16.8062C23.6605 16.8969 23.9155 16.9109 24.0242 16.8411C24.1289 16.7747 21.2276 13.919 20.8504 13.7196C20.527 13.5451 20.1713 13.4386 19.8051 13.4066C19.439 13.3747 19.0702 13.418 18.7215 13.534C18.3728 13.6499 18.0514 13.836 17.7773 14.0807C17.5032 14.3255 17.282 14.6238 17.1275 14.9572C16.9456 15.3452 16.9215 15.4606 16.8966 15.9606C16.8758 16.4324 16.8933 16.5794 16.9946 16.8801C17.1765 17.415 17.3335 17.6351 18.1483 18.4673C19.0295 19.3694 19.1973 19.5754 19.4208 20.058C20.0504 21.4003 19.7846 22.9526 18.7463 23.9869C17.9564 24.7802 16.8798 25.1506 15.8134 25.0043V25.005Z" fill="white"/>
</g>
<defs>
<clipPath id="clip0_1_1919">
<rect width="21.4768" height="21.4768" fill="white" transform="translate(7.17236 8.10754)"/>
</clipPath>
</defs>
</svg>
